<?xml version="1.0" encoding="utf-8"?>
<!-- Generator: Adobe Illustrator 16.0.0, SVG Export Plug-In . SVG Version: 6.00 Build 0)  -->
<!DOCTYPE svg PUBLIC "-//W3C//DTD SVG 1.1//EN" "http://www.w3.org/Graphics/SVG/1.1/DTD/svg11.dtd">
<svg version="1.1" id="Layer_1" xmlns="http://www.w3.org/2000/svg" xmlns:xlink="http://www.w3.org/1999/xlink" x="0px" y="0px"
	 width="239.91px" height="94.763px" viewBox="0 0 239.91 94.763" enable-background="new 0 0 239.91 94.763" xml:space="preserve">
<g>
	<path fill="#FFFFFF" d="M117.367,55.63c0-1.535-0.732-3.219-2.304-3.219c-1.39,0-1.938,1.537-1.938,2.963
		c0,1.646,0.694,3.621,1.828,5.705C116.635,59.69,117.367,58.153,117.367,55.63z"/>
	<path fill="#FFFFFF" d="M111.443,64.846c-1.098,0.914-1.755,2.048-1.755,3.729c0,3.803,2.559,5.266,5.521,5.266
		c1.243,0,2.413-0.365,3.474-0.95C115.831,70.624,113.271,67.771,111.443,64.846z"/>
	<path fill="#FFFFFF" d="M125.395,46.766L125.395,46.766l-19.318,1.647c-3.005,0.256-5.461,2.934-5.461,5.949v16.698
		c0,3.015,2.466,5.48,5.482,5.48h18.685c-1.542-0.603-3.088-1.455-4.564-2.48c-1.792,1.243-3.95,2.012-6.618,2.012
		c-3.951,0-8.375-1.683-8.375-6.108c0-2.486,1.938-4.533,5.339-6.654c-1.28-2.377-2.048-4.754-2.048-6.838
		c0-2.705,2.121-5.668,6.729-5.668c3.511,0,6.217,1.499,6.217,4.645c0,2.777-3.218,5.338-5.706,7.021
		c1.647,2.633,3.84,5.376,5.997,7.716c1.976-2.451,3.072-5.631,3.072-7.68c0-1.572-0.768-2.23-2.377-2.414v-1.096h5.596l0.183,0.549
		c-0.548,0.877-0.841,2.193-1.28,3.582c-0.841,2.744-2.047,5.816-4.023,8.302c1.938,1.993,3.742,3.595,4.991,4.481
		c1.745-0.92,2.942-2.75,2.942-4.849v-0.586V51.783v-5.482L125.395,46.766z"/>
	<g>
		<defs>
			<path id="SVGID_1_" d="M239.91,35.634l-97.984,9.55l-11.006,1.069l0.012-6.091l0.072-4.624l0.01-0.608
				c-0.025-3.219,0.77-6.633,3.885-7.372l97.746-27.421c3.117-0.739,7.266,1.63,7.266,4.659V35.634z"/>
		</defs>
		<use xlink:href="#SVGID_1_"  overflow="visible" fill="#FFFFFF"/>
		<clipPath id="SVGID_2_">
			<use xlink:href="#SVGID_1_"  overflow="visible"/>
		</clipPath>
	</g>
	<path fill="#FFFFFF" d="M0.804,73.023c1.984-0.242,3.245-1.356,3.245-3.003V47.36c0-2.325-0.243-2.81-3.729-3.536v-1.453h13.606
		c5.763,0,12.298,1.986,12.298,8.572c0,6.634-6.343,11.04-12.588,10.41v-1.841c3.777-0.338,5.471-3.1,5.471-6.924
		c0-4.987-3.147-7.698-6.875-7.698h-1.114l-0.58,0.58v24.55c0,1.404-0.243,2.47-0.243,2.47l4.6,0.436l-0.193,1.598L0.804,74.815
		V73.023z"/>
	<path fill="#FFFFFF" d="M26.426,62.743c0-1.572-0.036-2.486-1.097-2.486h-1.097V59.05c6.253-1.098,7.094-1.463,7.094-1.463
		l0.11,0.109c0,0-0.329,1.023-0.329,3.84v7.424c0,2.633,0.877,3.291,2.084,3.291c1.828,0,3.657-1.682,3.657-1.682v-7.826
		c0-1.572-0.037-2.486-1.098-2.486h-0.913v-1.244c5.997-1.061,6.912-1.426,6.912-1.426l0.109,0.109c0,0-0.33,1.023-0.33,3.84v9.654
		c0,2.084,0.841,2.084,2.048,2.084h0.841l-0.11,1.17c-4.9,0.402-7.387,0.732-7.387,0.732l-0.073-0.074c0,0,0.255-1.097,0.255-2.011
		v-1.536c0,0-2.449,3.73-6.069,3.73c-2.633,0-4.608-1.426-4.608-4.938V62.743z"/>
	<path fill="#FFFFFF" d="M45.221,73.714c1.5-0.184,2.085-1.061,2.085-2.377V62.67c0-1.499-0.037-2.413-1.098-2.413h-1.462v-1.17
		c4.315-0.695,7.387-1.829,7.387-1.829l0.11,0.11c0,0-0.329,0.805-0.511,4.059c1.279-1.682,3.51-3.657,6.509-3.657
		c2.522,0,4.352,1.39,4.352,4.938v8.63c0,1.096-0.183,1.938-0.183,1.938l2.926,0.367l-0.146,1.096l-8.922,0.22v-1.243
		c1.243-0.184,1.645-1.061,1.645-2.377v-7.204c0-2.56-0.622-3.146-2.047-3.146c-1.207,0-2.707,0.439-3.876,1.354v8.996
		c0,1.096-0.183,1.938-0.183,1.938l2.305,0.367l-0.146,1.096l-8.74,0.22V73.714z"/>
	<path fill="#FFFFFF" d="M67.6,62.926c0-1.061,0.109-2.376,0.109-2.376h-2.34v-1.574c0,0,1.682-0.328,2.56-1.133l1.389-4.132
		l3.145,0.11l0.11,0.108c0,0-0.33,0.806-0.33,3.585v0.694h5.192l-0.256,2.229h-4.461l-0.439,0.439v8.119
		c0,2.121,0.403,3.363,2.305,3.363c1.609,0,3.108-0.841,3.108-0.841l0.586,0.95c0,0-2.451,2.816-6.217,2.816
		c-2.633,0-4.461-1.391-4.461-4.791V62.926z"/>
	<path fill="#FFFFFF" d="M87.821,57.77c5.485,0,8.813,3.364,8.813,8.118c0,4.607-3.073,9.398-9.289,9.398
		c-5.303,0-8.703-3.51-8.703-8.411C78.643,62.561,81.312,57.77,87.821,57.77z M87.931,73.677c3.072,0,3.693-4.498,3.62-7.094
		c-0.037-3.291-1.207-7.204-4.132-7.204c-2.596,0-3.729,3.146-3.729,6.546C83.689,69.472,84.932,73.677,87.931,73.677z"/>
	<path fill="#FFFFFF" d="M143.996,70.41c-3.953-0.908-7.107-3.474-7.107-7.802c0-5.557,5.236-8.549,10.848-8.549
		c3.42,0,4.756,1.068,7.746,1.068h2.566c1.709,0,3.525-0.694,3.525-0.694l-0.588,4.167h-2.189c-1.176,0-1.871-0.16-1.871-0.16
		s1.816,1.336,1.816,4.383c0,5.129-5.234,8.014-11.006,8.014c-0.855,0-1.764-0.053-2.566-0.16c-0.32,0.374-0.801,1.176-0.801,1.817
		c0,1.335,3.152,1.815,6.305,2.403c4.809,0.908,10.313,2.244,10.313,7.054c0,5.664-7.479,9.724-13.945,9.724
		c-4.701,0-10.9-2.137-10.9-6.304c0-3.259,3.688-4.862,6.572-5.932c-2.725-0.747-4.756-1.924-4.756-4.061
		C137.957,72.494,142.072,71.157,143.996,70.41z M144.156,79.813c-0.961,0.909-2.191,2.459-2.191,4.541
		c0,3.047,2.885,4.81,6.092,4.81c3.047,0,7.053-1.603,7.053-4.435c0-2.512-2.992-3.152-7.428-4.115
		C146.505,80.348,145.277,80.134,144.156,79.813z M152.064,62.876c0-3.1-1.283-6.465-4.436-6.465c-2.992,0-4.061,2.885-4.061,6.037
		c0,3.205,1.123,6.039,4.273,6.039C150.941,68.487,152.064,65.868,152.064,62.876z"/>
	<path fill="#FFFFFF" d="M163.216,62.743c0-1.572-0.037-2.486-1.098-2.486h-1.096V59.05c6.252-1.098,7.094-1.463,7.094-1.463
		l0.109,0.109c0,0-0.328,1.023-0.328,3.84v7.424c0,2.633,0.877,3.291,2.082,3.291c1.83,0,3.658-1.682,3.658-1.682v-7.826
		c0-1.572-0.037-2.486-1.098-2.486h-0.914v-1.244c5.998-1.061,6.912-1.426,6.912-1.426l0.107,0.109c0,0-0.326,1.023-0.326,3.84
		v9.654c0,2.084,0.84,2.084,2.047,2.084h0.842l-0.111,1.17c-4.9,0.402-7.387,0.732-7.387,0.732l-0.072-0.074
		c0,0,0.256-1.097,0.256-2.011v-1.536c0,0-2.449,3.73-6.07,3.73c-2.633,0-4.607-1.426-4.607-4.938V62.743z"/>
	<path fill="#FFFFFF" d="M182.009,73.714c1.5-0.184,2.086-1.061,2.086-2.377V62.67c0-1.499-0.037-2.413-1.098-2.413h-1.463v-1.17
		c4.314-0.695,7.461-1.829,7.461-1.829l0.109,0.11c0,0-0.33,1.206-0.33,4.168v9.801c0,1.096-0.182,1.974-0.182,1.974l2.926,0.331
		l-0.148,1.096l-9.361,0.22V73.714z M183.4,52.03c0-1.537,1.133-2.598,2.705-2.598s2.707,1.061,2.707,2.598
		c0,1.498-1.135,2.559-2.707,2.559S183.4,53.528,183.4,52.03z"/>
	<path fill="#FFFFFF" d="M201.246,57.77c5.484,0,8.811,3.364,8.811,8.118c0,4.607-3.07,9.398-9.287,9.398
		c-5.301,0-8.703-3.51-8.703-8.411C192.066,62.561,194.736,57.77,201.246,57.77z M201.355,73.677c3.07,0,3.691-4.498,3.619-7.094
		c-0.035-3.291-1.207-7.204-4.131-7.204c-2.598,0-3.732,3.146-3.732,6.546C197.111,69.472,198.355,73.677,201.355,73.677z
		 M199.16,55.54l2.779-6.254l4.426-0.402v0.987l-5.742,6.436L199.16,55.54z"/>
	<path fill="#FFFFFF" d="M211.519,73.714c1.498-0.184,2.084-1.061,2.084-2.377V62.67c0-1.499-0.037-2.413-1.096-2.413h-1.465v-1.17
		c4.314-0.695,7.389-1.829,7.389-1.829l0.109,0.11c0,0-0.33,0.805-0.512,4.059c1.279-1.682,3.51-3.657,6.508-3.657
		c2.523,0,4.352,1.39,4.352,4.938v8.63c0,1.096-0.182,1.938-0.182,1.938l2.924,0.367l-0.146,1.096l-8.922,0.22v-1.243
		c1.244-0.184,1.646-1.061,1.646-2.377v-7.204c0-2.56-0.623-3.146-2.049-3.146c-1.205,0-2.705,0.439-3.875,1.354v8.996
		c0,1.096-0.184,1.938-0.184,1.938l2.305,0.367l-0.146,1.096l-8.74,0.22V73.714z"/>
	<g>
		<path fill="#FFFFFF" d="M1.646,81.335H0.674v-0.6h5.837c0.614,0,0.869,0.255,0.869,0.869v0.793H6.751v-0.734
			c0-0.225-0.12-0.328-0.329-0.328H2.29v4.295h4.177v0.6H2.29v4.057c0,0.225,0.12,0.329,0.33,0.329h4.251
			c0.209,0,0.33-0.104,0.33-0.329v-0.734h0.628v0.794c0,0.614-0.254,0.868-0.868,0.868H2.515c-0.614,0-0.868-0.254-0.868-0.868
			V81.335z"/>
		<path fill="#FFFFFF" d="M10.555,89.642c0,0,0.778,1.139,2.32,1.139c0.958,0,1.841-0.479,1.841-1.408
			c0-1.885-4.311-1.467-4.311-3.877c0-1.287,1.078-1.945,2.56-1.945c0.644,0,2.11,0.284,2.11,1.272v0.569h-0.628v-0.359
			c0-0.629-0.928-0.869-1.452-0.869c-1.212,0-1.931,0.435-1.931,1.287c0,1.916,4.311,1.453,4.311,3.922
			c0,1.198-1.093,2.021-2.515,2.021c-1.886,0-2.754-1.287-2.754-1.287L10.555,89.642z"/>
		<path fill="#FFFFFF" d="M18.894,84.298h-0.988v-0.568h0.988v-2.08h0.629v2.08h1.961v0.568h-1.961v4.162
			c0,1.976,1.182,2.23,1.781,2.23c0.209,0,0.344-0.03,0.344-0.03v0.583c0,0-0.15,0.031-0.375,0.031c-0.778,0-2.38-0.285-2.38-2.77
			V84.298z"/>
		<path fill="#FFFFFF" d="M24.973,84.628c0-0.225-0.12-0.33-0.329-0.33H24v-0.568h0.734c0.613,0,0.868,0.254,0.868,0.823v3.697
			c0,1.302,0.165,2.53,1.841,2.53c1.871,0,3.069-1.646,3.069-3.398v-3.652h0.628v6.586c0,0.225,0.12,0.33,0.33,0.33h0.644v0.568
			h-0.733c-0.614,0-0.868-0.254-0.868-0.823v-0.419c0-0.345,0.03-0.613,0.03-0.613h-0.03c-0.254,0.703-1.257,2.035-3.069,2.035
			c-1.841,0-2.47-1.018-2.47-2.919V84.628z"/>
		<path fill="#FFFFFF" d="M37.938,83.55c1.886,0,2.56,1.617,2.56,1.617h0.03c0,0-0.03-0.27-0.03-0.614v-2.919
			c0-0.225-0.12-0.329-0.329-0.329h-0.644v-0.569h0.733c0.614,0,0.868,0.255,0.868,0.869v8.711c0,0.225,0.12,0.33,0.329,0.33H42.1
			v0.568h-0.734c-0.613,0-0.868-0.254-0.868-0.868c0-0.345,0.03-0.569,0.03-0.569h-0.03c0,0-0.614,1.617-2.679,1.617
			c-2.006,0-3.233-1.602-3.233-3.922C34.585,85.092,35.977,83.55,37.938,83.55z M40.513,87.456c0-1.661-0.853-3.308-2.604-3.308
			c-1.467,0-2.665,1.228-2.665,3.323c0,2.021,1.078,3.309,2.604,3.309C39.226,90.78,40.513,89.807,40.513,87.456z"/>
		<path fill="#FFFFFF" d="M45.32,84.628c0-0.225-0.12-0.33-0.329-0.33h-0.644v-0.568h0.733c0.614,0,0.868,0.254,0.868,0.868v5.718
			c0,0.225,0.12,0.33,0.329,0.33h0.644v0.568h-0.734c-0.614,0-0.868-0.254-0.868-0.868V84.628z M45.23,80.735h0.689v1.094H45.23
			V80.735z"/>
		<path fill="#FFFFFF" d="M53.299,83.55c2.141,0,3.877,1.691,3.877,3.877c0,2.23-1.736,3.967-3.877,3.967s-3.877-1.736-3.877-3.967
			C49.422,85.241,51.159,83.55,53.299,83.55z M53.299,90.78c1.781,0,3.218-1.453,3.218-3.354c0-1.855-1.437-3.264-3.218-3.264
			s-3.218,1.408-3.218,3.264C50.081,89.327,51.518,90.78,53.299,90.78z"/>
		<path fill="#FFFFFF" d="M70.531,80.556c1.542,0,3.892,0.659,3.892,2.156v0.748H73.78v-0.599c0-1.077-1.886-1.677-3.233-1.677
			c-2.53,0-4.461,2.021-4.461,4.715c0,2.71,1.916,4.865,4.506,4.865c2.245,0,3.547-1.496,3.547-1.496l0.404,0.463
			c0,0-1.407,1.662-3.952,1.662c-3.009,0-5.179-2.455-5.179-5.494C65.412,82.861,67.627,80.556,70.531,80.556z"/>
		<path fill="#FFFFFF" d="M77.854,84.628c0-0.225-0.12-0.33-0.329-0.33h-0.644v-0.568h0.733c0.614,0,0.868,0.254,0.868,0.823v0.524
			c0,0.344-0.03,0.613-0.03,0.613h0.03c0.374-1.152,1.183-2.021,2.365-2.021c0.225,0,0.434,0.045,0.434,0.045v0.629
			c0,0-0.18-0.029-0.344-0.029c-1.168,0-1.901,0.988-2.23,2.096c-0.165,0.523-0.225,1.078-0.225,1.571v3.233h-0.629V84.628z"/>
		<path fill="#FFFFFF" d="M87.016,83.55c2.036,0,3.054,1.602,3.054,3.413c0,0.165-0.03,0.403-0.03,0.403h-6.002
			c0,2.171,1.467,3.414,3.203,3.414c1.437,0,2.32-0.943,2.32-0.943l0.344,0.523c0,0-1.048,1.033-2.665,1.033
			c-2.11,0-3.862-1.527-3.862-3.906C83.379,84.957,85.1,83.55,87.016,83.55z M89.411,86.783c-0.075-1.826-1.167-2.649-2.41-2.649
			c-1.377,0-2.649,0.898-2.919,2.649H89.411z"/>
		<path fill="#FFFFFF" d="M97.571,86.648h0.494v-0.104c0-1.781-0.614-2.41-2.17-2.41c-0.389,0-1.662,0.104-1.662,0.733v0.509h-0.628
			v-0.688c0-0.884,1.691-1.138,2.305-1.138c2.29,0,2.784,1.242,2.784,2.829v3.937c0,0.225,0.12,0.33,0.329,0.33h0.644v0.568h-0.734
			c-0.614,0-0.868-0.239-0.868-0.913c0-0.404,0.03-0.674,0.03-0.674h-0.03c0.015,0-0.644,1.767-2.589,1.767
			c-1.212,0-2.545-0.674-2.545-2.17C92.931,86.679,96.239,86.648,97.571,86.648z M95.505,90.81c1.632,0,2.56-1.691,2.56-3.174
			v-0.404h-0.479c-1.272,0-3.997,0-3.997,1.947C93.589,89.972,94.233,90.81,95.505,90.81z"/>
		<path fill="#FFFFFF" d="M102.857,84.298h-0.988v-0.568h0.988v-2.08h0.629v2.08h1.961v0.568h-1.961v4.162
			c0,1.976,1.182,2.23,1.781,2.23c0.209,0,0.344-0.03,0.344-0.03v0.583c0,0-0.15,0.031-0.375,0.031c-0.778,0-2.38-0.285-2.38-2.77
			V84.298z"/>
		<path fill="#FFFFFF" d="M109.055,84.628c0-0.225-0.12-0.33-0.329-0.33h-0.644v-0.568h0.733c0.614,0,0.868,0.254,0.868,0.868v5.718
			c0,0.225,0.12,0.33,0.329,0.33h0.644v0.568h-0.734c-0.614,0-0.868-0.254-0.868-0.868V84.628z M108.965,80.735h0.689v1.094h-0.689
			V80.735z"/>
		<path fill="#FFFFFF" d="M113.338,84.657c-0.105-0.284-0.284-0.359-0.569-0.359h-0.12v-0.568h0.104
			c0.749,0,0.943,0.135,1.228,0.868l1.961,4.999c0.135,0.359,0.254,0.809,0.254,0.809h0.03c0,0,0.12-0.449,0.254-0.809l1.961-4.999
			c0.284-0.733,0.479-0.868,1.228-0.868h0.104v0.568h-0.12c-0.285,0-0.464,0.075-0.569,0.359l-2.575,6.557h-0.599L113.338,84.657z"
			/>
		<path fill="#FFFFFF" d="M125.808,83.55c2.141,0,3.877,1.691,3.877,3.877c0,2.23-1.736,3.967-3.877,3.967s-3.877-1.736-3.877-3.967
			C121.931,85.241,123.667,83.55,125.808,83.55z M125.808,90.78c1.781,0,3.219-1.453,3.219-3.354c0-1.855-1.438-3.264-3.219-3.264
			s-3.218,1.408-3.218,3.264C122.59,89.327,124.027,90.78,125.808,90.78z"/>
	</g>
</g>
</svg>
